{
	"asset":{
		"generator":"Khronos glTF Blender I/O v4.0.44",
		"version":"2.0"
	},
	"extensionsUsed":[
		"KHR_materials_specular",
		"KHR_materials_ior"
	],
	"scene":0,
	"scenes":[
		{
			"name":"Scene",
			"nodes":[
				0,
				1,
				2,
				3,
				4
			]
		}
	],
	"nodes":[
		{
			"mesh":0,
			"name":"Ver2Character77_BOT_LOWPOLY_UVSUB.003",
			"rotation":[
				0.7071068286895752,
				0,
				0,
				0.7071068286895752
			]
		},
		{
			"mesh":1,
			"name":"Ver2Character77_CHARACTER_UVSUB",
			"rotation":[
				0.7071068286895752,
				0,
				0,
				0.7071068286895752
			]
		},
		{
			"mesh":2,
			"name":"Ver2Character77_CHARACTER_UVSUB.001",
			"rotation":[
				0.7071068286895752,
				0,
				0,
				0.7071068286895752
			]
		},
		{
			"mesh":3,
			"name":"Ver2Character77_CHARACTER_UVSUB.002",
			"rotation":[
				0.7071068286895752,
				0,
				0,
				0.7071068286895752
			]
		},
		{
			"mesh":4,
			"name":"Ver2Character77_CHARACTER_UVSUB.003",
			"rotation":[
				0.7071068286895752,
				0,
				0,
				0.7071068286895752
			]
		}
	],
	"materials":[
		{
			"doubleSided":true,
			"emissiveTexture":{
				"index":0
			},
			"extensions":{
				"KHR_materials_specular":{
					"specularColorFactor":[
						2.0,
						2.0,
						2.0
					]
				},
				"KHR_materials_ior":{
					"ior":1.4500000476837158
				}
			},
			"name":"Material.003",
			"normalTexture":{
				"index":1
			},
			"pbrMetallicRoughness":{
				"baseColorTexture":{
					"index":2
				},
				"metallicRoughnessTexture":{
					"index":3
				}
			}
		},
		{
			"doubleSided":true,
			"emissiveTexture":{
				"index":4
			},
			"extensions":{
				"KHR_materials_specular":{
					"specularFactor":0
				},
				"KHR_materials_ior":{
					"ior":1.4500000476837158
				}
			},
			"name":"DefaultMaterial",
			"normalTexture":{
				"index":5
			},
			"pbrMetallicRoughness":{
				"baseColorTexture":{
					"index":6
				},
				"metallicRoughnessTexture":{
					"index":7
				}
			}
		},
		{
			"doubleSided":true,
			"emissiveTexture":{
				"index":8
			},
			"extensions":{
				"KHR_materials_specular":{
					"specularColorFactor":[
						2.0,
						2.0,
						2.0
					]
				},
				"KHR_materials_ior":{
					"ior":1.4500000476837158
				}
			},
			"name":"Material.001",
			"normalTexture":{
				"index":9
			},
			"pbrMetallicRoughness":{
				"baseColorTexture":{
					"index":10
				},
				"metallicRoughnessTexture":{
					"index":11
				}
			}
		},
		{
			"doubleSided":true,
			"emissiveTexture":{
				"index":12
			},
			"extensions":{
				"KHR_materials_specular":{
					"specularColorFactor":[
						2.0,
						2.0,
						2.0
					]
				},
				"KHR_materials_ior":{
					"ior":1.4500000476837158
				}
			},
			"name":"Body_Temo.004",
			"normalTexture":{
				"index":13
			},
			"pbrMetallicRoughness":{
				"baseColorTexture":{
					"index":14
				},
				"metallicRoughnessTexture":{
					"index":15
				}
			}
		},
		{
			"doubleSided":true,
			"name":"Material.002",
			"pbrMetallicRoughness":{
				"baseColorFactor":[
					0.017828529700636864,
					0.014216450974345207,
					0.014216450974345207,
					1
				],
				"metallicFactor":0,
				"roughnessFactor":0.5
			}
		},
		{
			"alphaMode":"BLEND",
			"doubleSided":true,
			"emissiveFactor":[
				0.021142149344086647,
				0.021142149344086647,
				0.021142149344086647
			],
			"name":"Hair_01",
			"pbrMetallicRoughness":{
				"metallicFactor":0,
				"roughnessFactor":0.5
			}
		},
		{
			"doubleSided":true,
			"name":"Eye",
			"pbrMetallicRoughness":{
				"metallicFactor":0,
				"roughnessFactor":0.5
			}
		}
	],
	"meshes":[
		{
			"name":"Ver2Character77_BOT_LOWPOLY_UVSUB.003",
			"primitives":[
				{
					"attributes":{
						"POSITION":0,
						"NORMAL":1,
						"TEXCOORD_0":2
					},
					"indices":3,
					"material":0
				},
				{
					"attributes":{
						"POSITION":4,
						"NORMAL":5,
						"TEXCOORD_0":6
					},
					"indices":7,
					"material":1
				},
				{
					"attributes":{
						"POSITION":8,
						"NORMAL":9,
						"TEXCOORD_0":10
					},
					"indices":11,
					"material":2
				}
			]
		},
		{
			"name":"Ver2Character77_TEST_UVSUB",
			"primitives":[
				{
					"attributes":{
						"POSITION":12,
						"NORMAL":13,
						"TEXCOORD_0":14
					},
					"indices":15,
					"material":3
				},
				{
					"attributes":{
						"POSITION":16,
						"NORMAL":17,
						"TEXCOORD_0":18
					},
					"indices":19,
					"material":4
				},
				{
					"attributes":{
						"POSITION":20,
						"NORMAL":21,
						"TEXCOORD_0":22
					},
					"indices":23,
					"material":5
				}
			]
		},
		{
			"name":"Ver2Character77_TEST_UVSUB.001",
			"primitives":[
				{
					"attributes":{
						"POSITION":24,
						"NORMAL":25,
						"TEXCOORD_0":26
					},
					"indices":27,
					"material":3
				}
			]
		},
		{
			"name":"Ver2Character77_TEST_UVSUB.002",
			"primitives":[
				{
					"attributes":{
						"POSITION":28,
						"NORMAL":29,
						"TEXCOORD_0":30
					},
					"indices":31,
					"material":6
				}
			]
		},
		{
			"name":"Ver2Character77_TEST_UVSUB.003",
			"primitives":[
				{
					"attributes":{
						"POSITION":32,
						"NORMAL":33,
						"TEXCOORD_0":34
					},
					"indices":35,
					"material":6
				}
			]
		}
	],
	"textures":[
		{
			"sampler":0,
			"source":0
		},
		{
			"sampler":0,
			"source":1
		},
		{
			"sampler":0,
			"source":2
		},
		{
			"sampler":0,
			"source":3
		},
		{
			"sampler":0,
			"source":4
		},
		{
			"sampler":0,
			"source":5
		},
		{
			"sampler":0,
			"source":6
		},
		{
			"sampler":0,
			"source":7
		},
		{
			"sampler":0,
			"source":8
		},
		{
			"sampler":0,
			"source":9
		},
		{
			"sampler":0,
			"source":10
		},
		{
			"sampler":0,
			"source":11
		},
		{
			"sampler":0,
			"source":12
		},
		{
			"sampler":0,
			"source":13
		},
		{
			"sampler":0,
			"source":14
		},
		{
			"sampler":0,
			"source":15
		}
	],
	"images":[
		{
			"mimeType":"image/png",
			"name":"Material.003_Emission",
			"uri":"Material_003_Emission.png"
		},
		{
			"mimeType":"image/png",
			"name":"Material.003_Normal",
			"uri":"Material_003_Normal.png"
		},
		{
			"mimeType":"image/png",
			"name":"Material.003_BaseColor-Material.003_Alpha",
			"uri":"Material_003_BaseColor-Material_003_Alpha.png"
		},
		{
			"mimeType":"image/png",
			"name":"Material.003_Metallic-Material.003_Roughness",
			"uri":"Material_003_Metallic-Material_003_Roughness.png"
		},
		{
			"mimeType":"image/png",
			"name":"DefaultMaterial_Emission",
			"uri":"DefaultMaterial_Emission.png"
		},
		{
			"mimeType":"image/png",
			"name":"DefaultMaterial_Normal",
			"uri":"DefaultMaterial_Normal.png"
		},
		{
			"mimeType":"image/png",
			"name":"DefaultMaterial_BaseColor-DefaultMaterial_Alpha",
			"uri":"DefaultMaterial_BaseColor-DefaultMaterial_Alpha.png"
		},
		{
			"mimeType":"image/png",
			"name":"DefaultMaterial_Metallic-DefaultMaterial_Roughness",
			"uri":"DefaultMaterial_Metallic-DefaultMaterial_Roughness.png"
		},
		{
			"mimeType":"image/png",
			"name":"Material.001_Emission",
			"uri":"Material_001_Emission.png"
		},
		{
			"mimeType":"image/png",
			"name":"Material.001_Normal",
			"uri":"Material_001_Normal.png"
		},
		{
			"mimeType":"image/png",
			"name":"Material.001_BaseColor.png-Material.001_Alpha.png",
			"uri":"Material_001_BaseColor_png-Material_001_Alpha_png.png"
		},
		{
			"mimeType":"image/png",
			"name":"Material.001_Metallic.png-Material.001_Roughness.png",
			"uri":"Material_001_Metallic_png-Material_001_Roughness_png.png"
		},
		{
			"mimeType":"image/png",
			"name":"Body_Temo.004_Emission",
			"uri":"Body_Temo_004_Emission.png"
		},
		{
			"mimeType":"image/png",
			"name":"Body_Temo.004_Normal",
			"uri":"Body_Temo_004_Normal.png"
		},
		{
			"mimeType":"image/png",
			"name":"Body_Temo.004_BaseColor.png-Body_Temo.004_Alpha.png",
			"uri":"Body_Temo_004_BaseColor_png-Body_Temo_004_Alpha_png.png"
		},
		{
			"mimeType":"image/png",
			"name":"Body_Temo.004_Metallic.png-Body_Temo.004_Roughness.png",
			"uri":"Body_Temo_004_Metallic_png-Body_Temo_004_Roughness_png.png"
		}
	],
	"accessors":[
		{
			"bufferView":0,
			"componentType":5126,
			"count":139240,
			"max":[
				0.12604984641075134,
				0.0861644446849823,
				-0.07205371558666229
			],
			"min":[
				-0.12581583857536316,
				-0.13588687777519226,
				-0.6177607774734497
			],
			"type":"VEC3"
		},
		{
			"bufferView":1,
			"componentType":5126,
			"count":139240,
			"type":"VEC3"
		},
		{
			"bufferView":2,
			"componentType":5126,
			"count":139240,
			"type":"VEC2"
		},
		{
			"bufferView":3,
			"componentType":5125,
			"count":208896,
			"type":"SCALAR"
		},
		{
			"bufferView":4,
			"componentType":5126,
			"count":36864,
			"max":[
				0.1902831345796585,
				0.16307298839092255,
				-0.6384244561195374
			],
			"min":[
				-0.18980833888053894,
				-0.3063024580478668,
				-1.1154886484146118
			],
			"type":"VEC3"
		},
		{
			"bufferView":5,
			"componentType":5126,
			"count":36864,
			"type":"VEC3"
		},
		{
			"bufferView":6,
			"componentType":5126,
			"count":36864,
			"type":"VEC2"
		},
		{
			"bufferView":7,
			"componentType":5123,
			"count":55296,
			"type":"SCALAR"
		},
		{
			"bufferView":8,
			"componentType":5126,
			"count":247040,
			"max":[
				0.13356277346611023,
				0.06942509114742279,
				-0.84972083568573
			],
			"min":[
				-0.13332875072956085,
				-0.12367904186248779,
				-1.3397222757339478
			],
			"type":"VEC3"
		},
		{
			"bufferView":9,
			"componentType":5126,
			"count":247040,
			"type":"VEC3"
		},
		{
			"bufferView":10,
			"componentType":5126,
			"count":247040,
			"type":"VEC2"
		},
		{
			"bufferView":11,
			"componentType":5125,
			"count":370560,
			"type":"SCALAR"
		},
		{
			"bufferView":12,
			"componentType":5126,
			"count":912758,
			"max":[
				0.12931036949157715,
				0.10924138873815536,
				-0.07546606659889221
			],
			"min":[
				-0.12907636165618896,
				-0.13179999589920044,
				-1.5980623960494995
			],
			"type":"VEC3"
		},
		{
			"bufferView":13,
			"componentType":5126,
			"count":912758,
			"type":"VEC3"
		},
		{
			"bufferView":14,
			"componentType":5126,
			"count":912758,
			"type":"VEC2"
		},
		{
			"bufferView":15,
			"componentType":5125,
			"count":1369152,
			"type":"SCALAR"
		},
		{
			"bufferView":16,
			"componentType":5126,
			"count":13312,
			"max":[
				0.06353428959846497,
				0.07614966481924057,
				-1.50270676612854
			],
			"min":[
				-0.06330015510320663,
				0.05275541916489601,
				-1.5130624771118164
			],
			"type":"VEC3"
		},
		{
			"bufferView":17,
			"componentType":5126,
			"count":13312,
			"type":"VEC3"
		},
		{
			"bufferView":18,
			"componentType":5126,
			"count":13312,
			"type":"VEC2"
		},
		{
			"bufferView":19,
			"componentType":5123,
			"count":19968,
			"type":"SCALAR"
		},
		{
			"bufferView":20,
			"componentType":5126,
			"count":392128,
			"max":[
				0.11855830252170563,
				0.08061860501766205,
				-1.0081945657730103
			],
			"min":[
				-0.09778163582086563,
				-0.1509912759065628,
				-1.6001288890838623
			],
			"type":"VEC3"
		},
		{
			"bufferView":21,
			"componentType":5126,
			"count":392128,
			"type":"VEC3"
		},
		{
			"bufferView":22,
			"componentType":5126,
			"count":392128,
			"type":"VEC2"
		},
		{
			"bufferView":23,
			"componentType":5125,
			"count":908160,
			"type":"SCALAR"
		},
		{
			"bufferView":24,
			"componentType":5126,
			"count":452854,
			"max":[
				0.2447885125875473,
				0.00814464595168829,
				-0.7426894903182983
			],
			"min":[
				-0.2447884976863861,
				-0.07801177352666855,
				-1.324227213859558
			],
			"type":"VEC3"
		},
		{
			"bufferView":25,
			"componentType":5126,
			"count":452854,
			"type":"VEC3"
		},
		{
			"bufferView":26,
			"componentType":5126,
			"count":452854,
			"type":"VEC2"
		},
		{
			"bufferView":27,
			"componentType":5125,
			"count":679296,
			"type":"SCALAR"
		},
		{
			"bufferView":28,
			"componentType":5126,
			"count":70656,
			"max":[
				0.06983570009469986,
				0.062478207051754,
				-1.4563195705413818
			],
			"min":[
				0.012129733338952065,
				0.003909617196768522,
				-1.5138819217681885
			],
			"type":"VEC3"
		},
		{
			"bufferView":29,
			"componentType":5126,
			"count":70656,
			"type":"VEC3"
		},
		{
			"bufferView":30,
			"componentType":5126,
			"count":70656,
			"type":"VEC2"
		},
		{
			"bufferView":31,
			"componentType":5125,
			"count":105984,
			"type":"SCALAR"
		},
		{
			"bufferView":32,
			"componentType":5126,
			"count":70656,
			"max":[
				-0.01189560629427433,
				0.062478207051754,
				-1.456319808959961
			],
			"min":[
				-0.06960156559944153,
				0.003909620456397533,
				-1.5138819217681885
			],
			"type":"VEC3"
		},
		{
			"bufferView":33,
			"componentType":5126,
			"count":70656,
			"type":"VEC3"
		},
		{
			"bufferView":34,
			"componentType":5126,
			"count":70656,
			"type":"VEC2"
		},
		{
			"bufferView":35,
			"componentType":5125,
			"count":105984,
			"type":"SCALAR"
		}
	],
	"bufferViews":[
		{
			"buffer":0,
			"byteLength":1670880,
			"byteOffset":0,
			"target":34962
		},
		{
			"buffer":0,
			"byteLength":1670880,
			"byteOffset":1670880,
			"target":34962
		},
		{
			"buffer":0,
			"byteLength":1113920,
			"byteOffset":3341760,
			"target":34962
		},
		{
			"buffer":0,
			"byteLength":835584,
			"byteOffset":4455680,
			"target":34963
		},
		{
			"buffer":0,
			"byteLength":442368,
			"byteOffset":5291264,
			"target":34962
		},
		{
			"buffer":0,
			"byteLength":442368,
			"byteOffset":5733632,
			"target":34962
		},
		{
			"buffer":0,
			"byteLength":294912,
			"byteOffset":6176000,
			"target":34962
		},
		{
			"buffer":0,
			"byteLength":110592,
			"byteOffset":6470912,
			"target":34963
		},
		{
			"buffer":0,
			"byteLength":2964480,
			"byteOffset":6581504,
			"target":34962
		},
		{
			"buffer":0,
			"byteLength":2964480,
			"byteOffset":9545984,
			"target":34962
		},
		{
			"buffer":0,
			"byteLength":1976320,
			"byteOffset":12510464,
			"target":34962
		},
		{
			"buffer":0,
			"byteLength":1482240,
			"byteOffset":14486784,
			"target":34963
		},
		{
			"buffer":0,
			"byteLength":10953096,
			"byteOffset":15969024,
			"target":34962
		},
		{
			"buffer":0,
			"byteLength":10953096,
			"byteOffset":26922120,
			"target":34962
		},
		{
			"buffer":0,
			"byteLength":7302064,
			"byteOffset":37875216,
			"target":34962
		},
		{
			"buffer":0,
			"byteLength":5476608,
			"byteOffset":45177280,
			"target":34963
		},
		{
			"buffer":0,
			"byteLength":159744,
			"byteOffset":50653888,
			"target":34962
		},
		{
			"buffer":0,
			"byteLength":159744,
			"byteOffset":50813632,
			"target":34962
		},
		{
			"buffer":0,
			"byteLength":106496,
			"byteOffset":50973376,
			"target":34962
		},
		{
			"buffer":0,
			"byteLength":39936,
			"byteOffset":51079872,
			"target":34963
		},
		{
			"buffer":0,
			"byteLength":4705536,
			"byteOffset":51119808,
			"target":34962
		},
		{
			"buffer":0,
			"byteLength":4705536,
			"byteOffset":55825344,
			"target":34962
		},
		{
			"buffer":0,
			"byteLength":3137024,
			"byteOffset":60530880,
			"target":34962
		},
		{
			"buffer":0,
			"byteLength":3632640,
			"byteOffset":63667904,
			"target":34963
		},
		{
			"buffer":0,
			"byteLength":5434248,
			"byteOffset":67300544,
			"target":34962
		},
		{
			"buffer":0,
			"byteLength":5434248,
			"byteOffset":72734792,
			"target":34962
		},
		{
			"buffer":0,
			"byteLength":3622832,
			"byteOffset":78169040,
			"target":34962
		},
		{
			"buffer":0,
			"byteLength":2717184,
			"byteOffset":81791872,
			"target":34963
		},
		{
			"buffer":0,
			"byteLength":847872,
			"byteOffset":84509056,
			"target":34962
		},
		{
			"buffer":0,
			"byteLength":847872,
			"byteOffset":85356928,
			"target":34962
		},
		{
			"buffer":0,
			"byteLength":565248,
			"byteOffset":86204800,
			"target":34962
		},
		{
			"buffer":0,
			"byteLength":423936,
			"byteOffset":86770048,
			"target":34963
		},
		{
			"buffer":0,
			"byteLength":847872,
			"byteOffset":87193984,
			"target":34962
		},
		{
			"buffer":0,
			"byteLength":847872,
			"byteOffset":88041856,
			"target":34962
		},
		{
			"buffer":0,
			"byteLength":565248,
			"byteOffset":88889728,
			"target":34962
		},
		{
			"buffer":0,
			"byteLength":423936,
			"byteOffset":89454976,
			"target":34963
		}
	],
	"samplers":[
		{
			"magFilter":9729,
			"minFilter":9987
		}
	],
	"buffers":[
		{
			"byteLength":89878912,
			"uri":"THREEJS.bin"
		}
	]
}
